<svg width="24" height="25" viewBox="0 0 24 25" fill="none" xmlns="http://www.w3.org/2000/svg">
<g clip-path="url(#clip0_1018_649)">
<path d="M21.792 19.2035C21.442 20.0187 21.0097 20.796 20.502 21.5235C19.823 22.491 19.2675 23.1605 18.8395 23.5325C18.176 24.1425 17.4645 24.4555 16.703 24.473C16.1565 24.473 15.4975 24.3175 14.73 24.002C13.96 23.688 13.2525 23.532 12.6055 23.532C11.927 23.532 11.1995 23.688 10.421 24.002C9.6415 24.3175 9.0135 24.482 8.5335 24.498C7.8035 24.5295 7.0755 24.208 6.3485 23.5325C5.885 23.1275 5.3055 22.4345 4.6105 21.4525C3.865 20.4035 3.252 19.1875 2.772 17.8005C2.258 16.303 2 14.8525 2 13.4485C2 11.84 2.3475 10.453 3.0435 9.2905C3.591 8.3565 4.3185 7.6205 5.2295 7.0795C6.12324 6.54467 7.14302 6.25686 8.1845 6.2455C8.7645 6.2455 9.525 6.425 10.4705 6.7775C11.413 7.131 12.018 7.3105 12.2835 7.3105C12.4815 7.3105 13.154 7.1005 14.2935 6.6825C15.3715 6.2945 16.281 6.134 17.026 6.1975C19.0455 6.3605 20.5625 7.1565 21.571 8.5905C19.7655 9.6845 18.872 11.217 18.89 13.183C18.906 14.7145 19.4615 15.989 20.5535 17.0005C21.0485 17.4705 21.601 17.8335 22.2155 18.091C22.0867 18.4664 21.9454 18.8374 21.792 19.2035V19.2035ZM17.161 0.9805C17.161 2.1805 16.7225 3.3015 15.8485 4.3385C14.7935 5.572 13.518 6.2845 12.1345 6.172C12.1159 6.02105 12.1066 5.8691 12.1065 5.717C12.1065 4.565 12.608 3.332 13.499 2.3235C13.944 1.813 14.509 1.3885 15.195 1.05C15.88 0.7165 16.527 0.532 17.136 0.5C17.1535 0.6605 17.161 0.821 17.161 0.98V0.9805Z" fill="white"/>
</g>
<defs>
<clipPath id="clip0_1018_649">
<rect width="24" height="24" fill="white" transform="translate(0 0.5)"/>
</clipPath>
</defs>
</svg>
