<svg width="24" height="25" viewBox="0 0 24 25" fill="none" xmlns="http://www.w3.org/2000/svg">
<g clip-path="url(#clip0_1018_642)">
<path d="M15.0652 11.9848L4.7188 1.6096L17.8828 9.1672L15.0652 11.9848V11.9848ZM2.0176 1C1.408 1.3192 1 1.9 1 2.656V23.344C1 24.1 1.408 24.6808 2.0176 25L14.05 12.9976L2.0176 1ZM21.9532 11.5768L19.192 9.9784L16.1116 13.0024L19.192 16.0264L22.0096 14.428C22.8532 13.7572 22.8532 12.2476 21.9532 11.5768V11.5768ZM4.7188 24.3952L17.8828 16.8376L15.0652 14.02L4.7188 24.3952V24.3952Z" fill="white"/>
</g>
<defs>
<clipPath id="clip0_1018_642">
<rect width="24" height="24" fill="white" transform="translate(0 0.5)"/>
</clipPath>
</defs>
</svg>
