<svg width="198" height="36" viewBox="0 0 198 36" fill="none" xmlns="http://www.w3.org/2000/svg">
<path fill-rule="evenodd" clip-rule="evenodd" d="M36 18C36 27.9411 27.9411 36 18 36C8.05887 36 0 27.9411 0 18C0 8.05887 8.05887 0 18 0C27.9411 0 36 8.05887 36 18ZM27 18C27 22.9706 22.9706 27 18 27C13.0294 27 9 22.9706 9 18C9 13.0294 13.0294 9 18 9C22.9706 9 27 13.0294 27 18ZM18 24C21.3137 24 24 21.3137 24 18C24 14.6863 21.3137 12 18 12C14.6863 12 12 14.6863 12 18C12 21.3137 14.6863 24 18 24Z" fill="#FA8232"/>
<path d="M50.88 27.24C49.192 27.24 47.84 26.96 46.824 26.4C45.808 25.832 45.072 25.028 44.616 23.988C44.168 22.948 43.944 21.708 43.944 20.268V9.648H47.508V20.532C47.508 21.828 47.82 22.776 48.444 23.376C49.068 23.968 49.88 24.264 50.88 24.264C51.544 24.264 52.132 24.136 52.644 23.88C53.156 23.616 53.556 23.212 53.844 22.668C54.14 22.116 54.288 21.404 54.288 20.532V9.648H57.828V20.388C57.828 21.788 57.6 23.004 57.144 24.036C56.688 25.06 55.948 25.852 54.924 26.412C53.908 26.964 52.56 27.24 50.88 27.24ZM60.8312 27V9.648H64.2992L72.2192 21.132V9.648H75.7232V27H72.5672L64.3232 15.06V27H60.8312ZM79.1246 27V9.648H82.6166V27H79.1246ZM89.7834 27V12.768H84.5394V9.648H98.4234V12.768H93.2994V27H89.7834ZM100.337 27V9.648H112.253L112.241 12.6H103.853V16.812H111.137V19.704H103.829V24.012L112.373 24.024V27H100.337ZM115.161 27V9.648C115.249 9.648 115.493 9.648 115.893 9.648C116.301 9.648 116.777 9.648 117.321 9.648C117.873 9.648 118.421 9.652 118.965 9.66C119.517 9.66 119.977 9.664 120.345 9.672C122.449 9.72 124.165 10.096 125.493 10.8C126.821 11.504 127.793 12.488 128.409 13.752C129.033 15.016 129.345 16.512 129.345 18.24C129.345 20.04 129.017 21.596 128.361 22.908C127.705 24.212 126.701 25.22 125.349 25.932C124.005 26.644 122.297 27 120.225 27H115.161ZM118.689 24.168H120.297C121.289 24.168 122.189 23.976 122.997 23.592C123.813 23.208 124.465 22.58 124.953 21.708C125.441 20.836 125.685 19.672 125.685 18.216C125.685 16.864 125.469 15.768 125.037 14.928C124.605 14.08 123.989 13.46 123.189 13.068C122.389 12.676 121.441 12.48 120.345 12.48H118.689V24.168ZM136.889 27V9.648C136.977 9.648 137.221 9.648 137.621 9.648C138.029 9.648 138.505 9.648 139.049 9.648C139.601 9.648 140.149 9.652 140.693 9.66C141.245 9.66 141.705 9.664 142.073 9.672C144.177 9.72 145.893 10.096 147.221 10.8C148.549 11.504 149.521 12.488 150.137 13.752C150.761 15.016 151.073 16.512 151.073 18.24C151.073 20.04 150.745 21.596 150.089 22.908C149.433 24.212 148.429 25.22 147.077 25.932C145.733 26.644 144.025 27 141.953 27H136.889ZM140.417 24.168H142.025C143.017 24.168 143.917 23.976 144.725 23.592C145.541 23.208 146.193 22.58 146.681 21.708C147.169 20.836 147.413 19.672 147.413 18.216C147.413 16.864 147.197 15.768 146.765 14.928C146.333 14.08 145.717 13.46 144.917 13.068C144.117 12.676 143.169 12.48 142.073 12.48H140.417V24.168ZM153.682 27V9.648H165.598L165.586 12.6H157.198V16.812H164.482V19.704H157.174V24.012L165.718 24.024V27H153.682ZM167.223 27L173.427 9.648H177.135L183.339 27H179.847L178.431 22.98H172.179L170.739 27H167.223ZM172.971 19.92H177.579L175.287 13.02L172.971 19.92ZM185.464 27V9.648H188.992V24.036H196.528V27H185.464Z" fill="white"/>
</svg>
