<svg width="25" height="24" viewBox="0 0 25 24" fill="none" xmlns="http://www.w3.org/2000/svg">
<g clip-path="url(#clip0_1_6839)">
<path d="M25.4231 8.00337C25.3474 7.92774 25.2448 7.88525 25.1378 7.88525C25.0308 7.88525 24.9282 7.92774 24.8525 8.00337L22.5202 10.3357L16.2721 3.9558L18.5385 1.68935C18.5761 1.65191 18.6059 1.60742 18.6263 1.55844C18.6467 1.50946 18.6572 1.45693 18.6573 1.40388C18.6573 1.35083 18.6469 1.29828 18.6266 1.24926C18.6064 1.20023 18.5766 1.15569 18.5391 1.11817C18.5016 1.08066 18.457 1.05091 18.408 1.03063C18.359 1.01036 18.3064 0.999946 18.2534 1C18.2003 1.00005 18.1478 1.01057 18.0988 1.03095C18.0498 1.05133 18.0054 1.08116 17.9679 1.11875L14.887 4.1997C14.6847 4.40192 14.5279 4.64492 14.4269 4.91251C14.3259 5.18011 14.2832 5.46615 14.3015 5.75157H13.7614C13.359 5.75173 12.9611 5.83668 12.5937 6.00089C12.2264 6.1651 11.8977 6.40487 11.6292 6.70459L11.5508 6.7922C10.8088 6.42046 9.99568 6.21214 9.16631 6.18129C9.26533 5.83533 9.27006 5.46918 9.18001 5.12077C9.08996 4.77236 8.90841 4.45436 8.65416 4.1997L5.57321 1.11875C5.49753 1.04317 5.39493 1.00072 5.28796 1.00075C5.181 1.00079 5.07842 1.04329 5.00279 1.11893C4.92715 1.19456 4.88465 1.29714 4.88461 1.4041C4.88458 1.51107 4.92703 1.61367 5.00262 1.68935L7.30273 3.98946L1.05461 10.3694L-1.31141 8.00337C-1.38709 7.92778 -1.48969 7.88534 -1.59665 7.88537C-1.70362 7.8854 -1.80619 7.92791 -1.88183 8.00354C-1.95746 8.07918 -1.99997 8.18175 -2 8.28872C-2.00003 8.39568 -1.95759 8.49828 -1.882 8.57396L0.701695 11.1577C0.735789 11.2162 0.78452 11.265 0.843113 11.2991L1.19895 11.6549C1.45369 11.909 1.77168 12.0905 2.12004 12.1805C2.46839 12.2705 2.83448 12.2659 3.18045 12.1671C3.19059 12.4415 3.22026 12.7148 3.26922 12.985C3.08137 13.0713 2.9104 13.1904 2.76432 13.3367L1.87865 14.2224C1.63415 14.4669 1.46765 14.7784 1.4002 15.1175C1.33275 15.4566 1.36737 15.8081 1.49969 16.1276C1.63202 16.447 1.85609 16.7201 2.14359 16.9122C2.43109 17.1043 2.76909 17.2068 3.11486 17.2068C3.16928 17.2068 3.22327 17.2041 3.27681 17.1992C3.25419 17.4413 3.28236 17.6855 3.35951 17.916C3.43667 18.1466 3.56112 18.3586 3.72489 18.5383C3.88866 18.7181 4.08815 18.8616 4.3106 18.9598C4.53304 19.058 4.77354 19.1087 5.0167 19.1086C5.07112 19.1086 5.12511 19.1059 5.17865 19.101C5.15604 19.3431 5.18421 19.5873 5.26137 19.8179C5.33854 20.0485 5.46298 20.2604 5.62675 20.4401C5.79052 20.6199 5.99001 20.7634 6.21245 20.8616C6.43489 20.9599 6.67538 21.0105 6.91853 21.0105C6.97295 21.0105 7.02694 21.0077 7.08048 21.0029C7.04752 21.3607 7.12562 21.72 7.30416 22.0318C7.4827 22.3437 7.75301 22.5929 8.07828 22.7457C8.40356 22.8984 8.76799 22.9472 9.12198 22.8854C9.47597 22.8236 9.80231 22.6542 10.0566 22.4002L10.6391 21.8177L11.2217 22.4003C11.4662 22.6447 11.7777 22.8112 12.1168 22.8786C12.4559 22.946 12.8073 22.9114 13.1268 22.7791C13.4462 22.6468 13.7192 22.4227 13.9113 22.1353C14.1034 21.8479 14.206 21.5099 14.2061 21.1642C14.2061 21.11 14.2034 21.0562 14.1986 21.0029C14.2518 21.0078 14.3055 21.0105 14.3597 21.0105C14.8233 21.0104 15.268 20.8262 15.5958 20.4984C15.9237 20.1705 16.1079 19.7258 16.1079 19.2622C16.1079 19.208 16.1052 19.1543 16.1004 19.1011C16.1536 19.1059 16.2073 19.1086 16.2614 19.1086C16.7251 19.1086 17.1698 18.9244 17.4976 18.5965C17.8255 18.2687 18.0097 17.824 18.0097 17.3604C18.0097 17.3062 18.007 17.2525 18.0022 17.1993C18.0554 17.2041 18.1091 17.2068 18.1633 17.2068C18.5091 17.2068 18.8471 17.1043 19.1346 16.9122C19.4221 16.7201 19.6462 16.4471 19.7785 16.1276C19.9108 15.8081 19.9454 15.4566 19.878 15.1175C19.8105 14.7784 19.644 14.4669 19.3995 14.2224L18.9105 13.7334C19.4793 13.3007 19.9648 12.7685 20.3436 12.1625C20.6916 12.2649 21.0608 12.2719 21.4124 12.1826C21.7641 12.0933 22.0852 11.911 22.3422 11.6549L25.4231 8.57396C25.4988 8.49829 25.5413 8.39567 25.5413 8.28867C25.5413 8.18166 25.4988 8.07904 25.4231 8.00337ZM1.76954 11.0843L1.62521 10.94L7.87334 4.56006L8.08356 4.77029C8.31022 4.99744 8.43752 5.30522 8.43752 5.6261C8.43752 5.94699 8.31022 6.25477 8.08356 6.48191L3.48116 11.0843C3.25402 11.311 2.94624 11.4383 2.62535 11.4383C2.30446 11.4383 1.99668 11.311 1.76954 11.0843ZM3.11486 16.3999C2.92869 16.3999 2.7467 16.3447 2.59191 16.2413C2.43712 16.1378 2.31648 15.9908 2.24524 15.8188C2.17399 15.6468 2.15535 15.4575 2.19166 15.2749C2.22797 15.0923 2.31761 14.9246 2.44924 14.793L3.33491 13.9073C3.42229 13.8197 3.52607 13.7502 3.64032 13.7028C3.75457 13.6554 3.87705 13.6309 4.00075 13.6308C4.12446 13.6308 4.24696 13.6551 4.36126 13.7024C4.47557 13.7497 4.57942 13.8191 4.6669 13.9065C4.75437 13.994 4.82375 14.0979 4.87106 14.2122C4.91837 14.3265 4.94269 14.449 4.94263 14.5727C4.94256 14.6964 4.91812 14.8189 4.87069 14.9331C4.82326 15.0474 4.75377 15.1511 4.66621 15.2385L3.78048 16.1242C3.69327 16.2119 3.58954 16.2814 3.47529 16.3287C3.36104 16.3761 3.23853 16.4003 3.11486 16.3999ZM5.0167 18.3018C4.83052 18.3017 4.64853 18.2465 4.49374 18.1431C4.33894 18.0396 4.2183 17.8926 4.14705 17.7206C4.0758 17.5486 4.05715 17.3593 4.09346 17.1767C4.12976 16.9941 4.2194 16.8264 4.35102 16.6947L5.23675 15.8091C5.41339 15.6331 5.65266 15.5344 5.90203 15.5346C6.1514 15.5348 6.39049 15.634 6.56683 15.8103C6.74317 15.9866 6.84233 16.2257 6.84256 16.4751C6.84278 16.7244 6.74406 16.9637 6.56804 17.1404L5.68232 18.026C5.59511 18.1137 5.49138 18.1832 5.37712 18.2306C5.26287 18.2779 5.14036 18.3021 5.0167 18.3018ZM6.91853 20.2036C6.79486 20.2039 6.67236 20.1797 6.5581 20.1324C6.44385 20.0851 6.34012 20.0156 6.25291 19.9279C6.07664 19.7512 5.97764 19.5118 5.97763 19.2622C5.97762 19.0126 6.0766 18.7733 6.25286 18.5966L7.13858 17.7109C7.22596 17.6233 7.32974 17.5538 7.444 17.5064C7.55825 17.4589 7.68074 17.4345 7.80445 17.4344C7.92817 17.4343 8.05068 17.4586 8.16499 17.506C8.2793 17.5533 8.38316 17.6227 8.47064 17.7101C8.55812 17.7976 8.62749 17.9015 8.67479 18.0158C8.7221 18.1301 8.7464 18.2526 8.74632 18.3763C8.74624 18.5001 8.72178 18.6225 8.67432 18.7368C8.62687 18.851 8.55736 18.9548 8.46977 19.0422L7.58415 19.9279C7.49695 20.0156 7.39321 20.0851 7.27896 20.1324C7.16471 20.1797 7.0422 20.2039 6.91853 20.2036ZM10.3716 20.944L9.48604 21.8297C9.30942 22.0058 9.07012 22.1046 8.82069 22.1044C8.57126 22.1043 8.3321 22.0051 8.15572 21.8287C7.97935 21.6524 7.88018 21.4132 7.87999 21.1638C7.87981 20.9143 7.97863 20.675 8.15475 20.4984L9.04037 19.6128C9.12772 19.5251 9.2315 19.4555 9.34578 19.408C9.46006 19.3605 9.58259 19.3359 9.70636 19.3358C9.83012 19.3357 9.9527 19.36 10.0671 19.4073C10.1814 19.4546 10.2854 19.524 10.3729 19.6115C10.4604 19.699 10.5298 19.803 10.5771 19.9173C10.6244 20.0317 10.6487 20.1543 10.6486 20.278C10.6485 20.4018 10.6239 20.5243 10.5764 20.6386C10.5289 20.7529 10.4593 20.8567 10.3716 20.944ZM19.1047 15.4586C19.1047 15.6448 19.0495 15.8268 18.946 15.9816C18.8426 16.1364 18.6956 16.2571 18.5235 16.3283C18.3515 16.3995 18.1622 16.4182 17.9796 16.3818C17.797 16.3455 17.6293 16.2558 17.4977 16.1241L14.6069 13.2334C14.5694 13.1959 14.5249 13.1662 14.476 13.1458C14.427 13.1255 14.3745 13.1151 14.3215 13.1151C14.2685 13.1151 14.216 13.1255 14.1671 13.1458C14.1181 13.166 14.0736 13.1958 14.0361 13.2332C13.9986 13.2707 13.9689 13.3152 13.9486 13.3642C13.9283 13.4132 13.9179 13.4657 13.9179 13.5187C13.9179 13.5717 13.9284 13.6241 13.9487 13.6731C13.969 13.7221 13.9988 13.7665 14.0363 13.804L16.9271 16.6947C17.0147 16.7821 17.0843 16.8859 17.1319 17.0002C17.1794 17.1144 17.2039 17.237 17.204 17.3607C17.2042 17.4845 17.1799 17.6071 17.1326 17.7214C17.0852 17.8358 17.0158 17.9397 16.9283 18.0272C16.8408 18.1148 16.7369 18.1842 16.6225 18.2315C16.5082 18.2788 16.3856 18.3031 16.2618 18.3029C16.138 18.3028 16.0155 18.2783 15.9012 18.2308C15.787 18.1833 15.6832 18.1137 15.5958 18.026L12.7051 15.1352C12.6294 15.0595 12.5268 15.017 12.4198 15.017C12.3128 15.017 12.2102 15.0595 12.1345 15.1352C12.0588 15.2109 12.0163 15.3135 12.0163 15.4205C12.0163 15.5275 12.0588 15.6301 12.1345 15.7058L15.0252 18.5966C15.1128 18.6839 15.1823 18.7877 15.2297 18.902C15.2771 19.0162 15.3016 19.1387 15.3017 19.2624C15.3017 19.3861 15.2774 19.5086 15.2301 19.6229C15.1828 19.7372 15.1134 19.841 15.026 19.9285C14.9385 20.016 14.8347 20.0853 14.7204 20.1327C14.6061 20.18 14.4836 20.2043 14.3599 20.2042C14.2362 20.2042 14.1137 20.1797 13.9994 20.1323C13.8852 20.0849 13.7814 20.0154 13.694 19.9278L10.8033 17.037C10.7658 16.9995 10.7213 16.9697 10.6724 16.9493C10.6234 16.929 10.5709 16.9185 10.5179 16.9184C10.4649 16.9184 10.4124 16.9288 10.3634 16.9491C10.3144 16.9693 10.2698 16.999 10.2323 17.0365C10.1948 17.074 10.1651 17.1185 10.1448 17.1675C10.1245 17.2165 10.114 17.269 10.1141 17.322C10.1141 17.375 10.1245 17.4275 10.1448 17.4765C10.1652 17.5255 10.1949 17.57 10.2325 17.6075L13.1232 20.4983C13.2107 20.5856 13.28 20.6894 13.3273 20.8036C13.3747 20.9178 13.399 21.0402 13.3991 21.1638C13.3991 21.2874 13.3748 21.4098 13.3275 21.5241C13.2802 21.6383 13.2109 21.742 13.1235 21.8295C13.0361 21.9169 12.9323 21.9863 12.8181 22.0336C12.7039 22.0809 12.5815 22.1053 12.4579 22.1053C12.3343 22.1053 12.2119 22.081 12.0977 22.0337C11.9835 21.9864 11.8797 21.9171 11.7923 21.8297L11.1805 21.2179C11.3488 20.9536 11.4431 20.649 11.4533 20.3358C11.4636 20.0226 11.3895 19.7124 11.2388 19.4376C11.088 19.1629 10.8663 18.9337 10.5966 18.774C10.327 18.6144 10.0194 18.5302 9.70599 18.5301C9.65185 18.5301 9.59815 18.5328 9.5449 18.5377C9.54973 18.4844 9.55244 18.4307 9.55244 18.3766C9.55241 17.9129 9.36821 17.4683 9.04036 17.1404C8.71251 16.8126 8.26786 16.6283 7.8042 16.6283C7.74978 16.6283 7.69578 16.631 7.64225 16.6359C7.66622 16.3802 7.63348 16.1224 7.54637 15.8808C7.45925 15.6392 7.3199 15.4198 7.13826 15.2383C6.95662 15.0567 6.73715 14.9175 6.49552 14.8305C6.25389 14.7435 5.99603 14.7109 5.74035 14.735C5.76276 14.4979 5.73639 14.2587 5.66287 14.0322C5.58935 13.8057 5.47024 13.5966 5.31287 13.4178C5.1555 13.2391 4.9632 13.0945 4.74781 12.9928C4.53243 12.8912 4.29852 12.8348 4.0605 12.827C3.99523 12.4598 3.9714 12.0866 3.98945 11.7141C4.01048 11.6948 4.03138 11.6753 4.05175 11.6549L8.65416 7.05251C8.67455 7.03211 8.69409 7.01119 8.71343 6.99015C8.79233 6.98644 8.87221 6.9839 8.95348 6.9839C9.65536 6.98426 10.3493 7.13251 10.99 7.41899L8.43873 10.2706C8.2252 10.5094 8.11118 10.8209 8.12005 11.1411C8.12892 11.4614 8.26001 11.7661 8.48643 11.9927C8.9161 12.4214 9.49827 12.6621 10.1052 12.6621C10.7121 12.6621 11.2943 12.4213 11.724 11.9926L13.876 9.84012L15.1044 11.0684C16.0699 12.0338 17.0352 12.9992 18.0005 13.9647L18.0016 13.9657L18.829 14.793C18.9166 14.8802 18.9862 14.9839 19.0335 15.0982C19.0808 15.2124 19.105 15.3349 19.1047 15.4586ZM19.2346 12.3181C18.9691 12.6327 18.6669 12.9145 18.3345 13.1575C17.448 12.2707 16.5615 11.3841 15.6749 10.4978L14.1612 8.98423C14.0856 8.90858 13.9829 8.86608 13.8759 8.86609C13.7689 8.8661 13.6663 8.90861 13.5907 8.98428L11.1534 11.4221C10.8752 11.6997 10.4982 11.8556 10.1052 11.8556C9.71218 11.8556 9.3352 11.6997 9.05696 11.4221C8.9763 11.3413 8.92961 11.2328 8.92647 11.1187C8.92334 11.0046 8.964 10.8936 9.0401 10.8086L12.2305 7.24272C12.4233 7.02752 12.6592 6.85535 12.923 6.73745C13.1868 6.61955 13.4725 6.55856 13.7614 6.55845H14.5245C14.6194 6.7407 14.7416 6.90732 14.887 7.05251L19.4894 11.6549C19.5342 11.6997 19.5808 11.7416 19.6286 11.7813C19.509 11.9686 19.3774 12.1479 19.2346 12.3181ZM21.7716 11.0843C21.5444 11.311 21.2367 11.4383 20.9158 11.4383C20.5949 11.4383 20.2871 11.311 20.06 11.0843L15.4576 6.48191C15.2309 6.25477 15.1036 5.94699 15.1036 5.6261C15.1036 5.30522 15.2309 4.99744 15.4576 4.77029L15.7014 4.52641L21.9496 10.9063L21.7716 11.0843Z" fill="#FC7901"/>
</g>
<defs>
<clipPath id="clip0_1_6839">
<rect width="24" height="24" fill="white" transform="translate(0.398438)"/>
</clipPath>
</defs>
</svg>
