<svg width="123" height="123" viewBox="0 0 123 123" fill="none" xmlns="http://www.w3.org/2000/svg">
<path opacity="0.2" d="M61.8687 106.851C87.1597 106.851 107.662 86.3482 107.662 61.0572C107.662 35.7661 87.1597 15.2637 61.8687 15.2637C36.5776 15.2637 16.0752 35.7661 16.0752 61.0572C16.0752 86.3482 36.5776 106.851 61.8687 106.851Z" fill="#2DB324"/>
<path d="M82.8572 49.6094L54.8564 76.3222L40.8799 62.9658" stroke="#2DB324" stroke-width="5.55072" stroke-linecap="round" stroke-linejoin="round"/>
<path d="M61.8687 106.851C87.1597 106.851 107.662 86.3482 107.662 61.0572C107.662 35.7661 87.1597 15.2637 61.8687 15.2637C36.5776 15.2637 16.0752 35.7661 16.0752 61.0572C16.0752 86.3482 36.5776 106.851 61.8687 106.851Z" stroke="#2DB324" stroke-width="5.55072" stroke-linecap="round" stroke-linejoin="round"/>
</svg>
