<svg width="69" height="68" viewBox="0 0 69 68" fill="none" xmlns="http://www.w3.org/2000/svg">
<rect x="0.884766" y="0.0683594" width="67.8432" height="67.8432" rx="17.5079" fill="white"/>
<g clip-path="url(#clip0_1_7265)">
<path d="M48.4396 35.7713C48.3829 29.3372 53.6041 26.2483 53.8403 26.0977C50.9022 21.7239 46.3297 21.1247 44.6984 21.0542C40.8093 20.6537 37.1059 23.3837 35.1346 23.3837C33.1632 23.3837 30.1149 21.1119 26.8902 21.176C22.6452 21.2401 18.7372 23.6849 16.5517 27.5492C12.1461 35.3259 15.4274 46.8516 19.7165 53.164C21.817 56.2497 24.3174 59.7263 27.605 59.5981C30.7731 59.47 31.9697 57.5154 35.7927 57.5154C39.6158 57.5154 40.6928 59.5981 44.0403 59.5373C47.4445 59.47 49.6047 56.3843 51.6895 53.289C54.0954 49.7066 55.0905 46.2396 55.1472 46.057C55.0716 46.0249 48.5089 43.4647 48.4396 35.7713Z" fill="#222222"/>
<path d="M42.1514 16.6888C43.8959 14.5388 45.0737 11.5492 44.7493 8.56934C42.2361 8.67198 39.1943 10.274 37.3898 12.4241C35.7743 14.3243 34.3572 17.3682 34.7412 20.2874C37.544 20.5085 40.4065 18.8357 42.1514 16.6888Z" fill="#222222"/>
</g>
<defs>
<clipPath id="clip0_1_7265">
<rect width="40.7059" height="50.8824" fill="white" transform="translate(14.4531 8.54883)"/>
</clipPath>
</defs>
</svg>
