<svg width="74" height="74" viewBox="0 0 74 74" fill="none" xmlns="http://www.w3.org/2000/svg">
<g clip-path="url(#clip0_1_7306)">
<path fill-rule="evenodd" clip-rule="evenodd" d="M27.0309 50.2441V33.8573C27.0309 33.6704 27.2183 33.4835 27.4058 33.4835H33.7863C33.9738 33.4835 34.1612 33.6704 34.1612 33.8573V50.2441C34.1612 50.497 33.9333 50.6545 33.6724 50.6545H27.5197C27.2588 50.6545 27.0309 50.497 27.0309 50.2441ZM40.3653 0.0722656H40.505C40.8284 0.0759299 41.1077 0.108909 41.4753 0.108909C41.6627 0.108909 41.8539 0.105245 42.0413 0.108909C42.2582 0.112573 42.3243 0.149216 42.5632 0.149216C42.747 0.149216 42.9455 0.141888 43.1292 0.145552C43.324 0.152881 43.3865 0.18586 43.6144 0.18586C43.993 0.18586 44.3201 0.200517 44.7023 0.222503L45.713 0.299454C46.2019 0.303118 47.2273 0.402054 47.7345 0.453355C50.2485 0.717186 52.814 1.04331 55.214 1.75052C55.5154 1.83847 55.7837 1.90443 56.0851 2.00336C56.901 2.26719 57.7133 2.53835 58.4998 2.84982C59.0291 3.05869 59.5106 3.31519 60.0325 3.52772C60.525 3.72926 60.9844 4.02973 61.4512 4.28623C61.9363 4.55007 62.359 4.83588 62.8111 5.13636L64.6856 6.55811C65.1928 6.95386 66.4792 8.18507 66.8982 8.72739L67.398 9.31368C68.394 10.5669 69.2615 11.8567 69.9929 13.3115C70.761 14.8395 71.3454 16.4261 71.8269 18.0677C72.5767 20.6254 72.8413 22.8607 73.1721 25.4807L73.558 32.2047C73.5543 32.7287 73.5066 33.3333 73.5617 33.8463C73.6389 34.5279 73.6168 38.8188 73.558 39.5407C73.5139 40.0793 73.558 40.6766 73.558 41.2226C73.558 41.4534 73.5176 41.5121 73.5176 41.7429L73.4808 43.3919C73.4808 43.6227 73.4404 43.6813 73.4404 43.9122C73.4404 44.6157 73.3375 46.2097 73.2493 47.0489L72.9111 50.0426C72.595 52.2522 72.1577 54.3409 71.4887 56.4405C70.7426 58.7783 69.6216 61.1345 68.1441 63.0949C68.0559 63.2158 68.0008 63.3001 67.9089 63.421C67.3539 64.1502 66.7511 64.8611 66.1006 65.5097C65.5388 66.0741 64.9488 66.6097 64.3327 67.1147L63.7226 67.591C63.186 67.9904 62.631 68.3899 62.0503 68.7306L60.9991 69.3279C60.8594 69.4012 60.7859 69.4525 60.6352 69.5295C58.86 70.4052 58.1507 70.6544 56.2505 71.2957C55.6955 71.4825 55.1148 71.6218 54.5157 71.772C48.9364 73.1645 42.1185 73.2451 35.5799 73.2451C29.6662 73.2451 23.8958 72.9336 19.1729 71.7574C17.3388 71.2993 14.7403 70.4639 13.0239 69.4708C12.9099 69.4049 12.7997 69.3646 12.6747 69.295C11.0355 68.3825 10.5062 67.9391 9.1794 66.9058C9.10222 66.8472 9.10589 66.8545 9.03606 66.7886L8.43329 66.2646C7.81214 65.6709 7.04766 64.9381 6.52942 64.2712L5.54441 63.0106C4.55572 61.7025 3.79859 60.2184 3.12966 58.7234L2.80255 57.9282C2.69964 57.6424 2.60775 57.4189 2.51219 57.1331C2.42398 56.8656 2.30269 56.5798 2.22551 56.2976C2.14465 56.0008 2.04174 55.715 1.96456 55.4365C1.79916 54.8465 1.65582 54.2786 1.51248 53.6776C1.22212 52.4427 1.0163 51.2005 0.828852 49.8704C0.714914 49.0679 0.42088 46.6091 0.417205 45.8286C0.413529 45.0042 0.292241 44.0111 0.266513 43.172C0.262837 42.9888 0.270188 42.7946 0.270188 42.6077C0.270188 42.3769 0.229759 42.3182 0.229759 42.0874L0.193004 38.2325C0.193004 37.8624 0.15625 37.5876 0.15625 37.1845C0.15625 35.6858 0.200355 34.2604 0.193004 32.7324C0.193004 32.4942 0.229758 32.4282 0.233434 32.212C0.240785 31.4828 0.28489 29.0827 0.3731 28.4598C0.442933 27.9577 0.424556 26.994 0.516441 26.3601C0.567897 26.0193 0.578923 25.6675 0.612002 25.3304C0.887658 22.4942 1.38384 19.6141 2.27329 16.9611C2.82093 15.3232 3.47515 13.7951 4.31315 12.2964L5.16584 10.937C5.61792 10.2627 6.11043 9.64714 6.62131 9.02054L7.39315 8.14476C7.73864 7.75268 8.17601 7.40457 8.5362 7.0418C9.34847 6.221 11.1384 4.97513 12.072 4.42914C15.321 2.52736 18.401 1.67724 22.0544 0.988346C23.1717 0.775815 25.3696 0.475341 26.5053 0.413047C27.0346 0.383733 27.5344 0.303118 28.0821 0.299454C28.5966 0.295789 29.464 0.18586 30.1844 0.18586C30.4233 0.18586 30.4895 0.149216 30.7063 0.145552C30.8938 0.141888 31.0849 0.149216 31.2723 0.149216C31.4892 0.145552 31.5553 0.108909 31.7942 0.108909L40.3653 0.0722656V0.0722656ZM51.8363 50.2075V23.1575C51.8363 22.901 52.009 22.6701 52.2479 22.6701H58.2903C58.5292 22.6701 58.702 22.901 58.702 23.1575V50.2075C58.702 50.475 58.4594 50.6582 58.1764 50.6582H52.3582C52.0752 50.6582 51.8326 50.475 51.8326 50.2075H51.8363ZM21.1025 50.6582H15.2475C14.9866 50.6582 14.7587 50.5006 14.7587 50.2478V23.0842C14.7587 22.8643 14.9535 22.6738 15.1703 22.6738C21.4479 22.6738 27.8174 22.7104 34.084 22.6738L35.3226 22.7104C35.5248 22.7141 35.5432 22.7434 35.7343 22.7507L37.3184 22.857C37.6051 22.8863 37.8366 22.9083 38.1013 22.9376C38.5901 22.9926 39.1193 23.0732 39.5861 23.1795C42.5522 23.8427 44.2576 24.7625 45.3933 27.6426C46.3415 30.0427 46.4334 34.0955 46.4334 36.8584V50.2148C46.4334 50.4823 46.1909 50.6655 45.9078 50.6655H40.0897C39.4281 50.6655 39.5641 49.995 39.5641 49.3574V36.4883C39.5641 34.6451 39.6082 31.7796 38.4431 30.2333C37.2927 28.7053 34.7603 28.4817 32.8087 28.4817H22.1132C21.5325 28.4817 21.5876 29.0314 21.5876 29.3795C21.5913 31.6514 21.6354 50.1855 21.5692 50.3871C21.5435 50.464 21.459 50.5593 21.4002 50.5923C21.3303 50.6326 21.2164 50.6655 21.0988 50.6655L21.1025 50.6582Z" fill="#FF6900"/>
</g>
<defs>
<clipPath id="clip0_1_7306">
<rect width="73.3144" height="73.3144" fill="white" transform="translate(0.222656 0.0683594)"/>
</clipPath>
</defs>
</svg>
