<svg width="125" height="38" viewBox="0 0 125 38" fill="none" xmlns="http://www.w3.org/2000/svg">
<g clip-path="url(#clip0_1_7302)">
<path d="M0.0546875 0.0683594H124.799V37.2727H0.0546875V0.0683594Z" fill="#FFC915"/>
<path d="M51.5429 11.15C53.4972 11.15 55.3823 11.808 56.8099 12.9723V11.4153H59.4884V28.3605H56.8099V26.8103C55.4065 27.9678 53.5215 28.6223 51.5429 28.6223C49.1173 28.6223 46.9101 27.7301 45.33 26.111C43.7637 24.5126 42.9044 22.3079 42.9044 19.8999C42.9044 17.4885 43.7672 15.2769 45.33 13.6716C46.9135 12.0457 49.1208 11.15 51.5429 11.15ZM33.0011 11.088C35.1945 11.088 37.1835 11.8838 38.6077 13.334C40.1219 14.8773 40.9293 17.0441 40.9466 19.6071V20.4787H27.152C27.3183 23.6617 29.7612 26.0249 32.9387 26.0249C35.2188 26.0249 36.8509 25.0569 38.0775 22.9796L38.2265 22.7281L40.5481 24.2129L40.413 24.4437C38.8398 27.1341 36.2549 28.5568 32.9353 28.5568C27.9282 28.5568 24.4319 24.9707 24.4319 19.8379C24.4319 14.7671 28.0356 11.088 33.0011 11.088ZM104.254 11.088C106.448 11.088 108.437 11.8838 109.861 13.334C111.375 14.8773 112.182 17.0441 112.2 19.6071V20.4787H98.4051C98.5714 23.6617 101.014 26.0249 104.192 26.0249C106.472 26.0249 108.104 25.0569 109.331 22.9796L109.48 22.7281L111.801 24.2129L111.666 24.4437C110.093 27.1341 107.508 28.5568 104.188 28.5568C99.1812 28.5568 95.685 24.9707 95.6815 19.8379C95.6815 14.7671 99.2887 11.088 104.254 11.088ZM23.3993 11.3808V13.9128H15.6374V28.357H12.9277V11.3808H23.3993ZM87.0811 11.15C90.962 11.15 93.3737 13.7991 93.3737 18.0638V28.326H90.664V18.0638C90.664 15.401 89.129 13.682 86.7519 13.682C83.6957 13.682 82.6076 15.7764 82.6076 17.7366V28.3295H79.8979V18.0673C79.8979 15.3631 78.4114 13.6854 76.017 13.6854C74.0453 13.6854 71.9386 15.208 71.9386 17.4748V28.3191H69.2288V11.3774H71.9386V13.0206C73.0578 11.808 74.6517 11.15 76.5125 11.15C79.2673 11.15 80.7746 12.5348 81.5854 13.8473C82.819 12.1284 84.7941 11.15 87.0811 11.15ZM65.7118 6.37891V28.326H63.002V6.37891H65.7118ZM51.4078 13.8473C48.1055 13.8473 45.6141 16.4516 45.6141 19.9034C45.6141 23.3379 48.1055 25.925 51.4078 25.9284C54.8348 25.9284 57.1356 23.5067 57.1356 19.9034C57.1356 16.2828 54.8348 13.8473 51.4078 13.8473ZM32.9387 13.6165C30.2082 13.6165 27.9282 15.4216 27.2768 18.0466H38.1918C37.7137 15.3837 35.6415 13.6165 32.9387 13.6165ZM104.188 13.6165C101.458 13.6165 99.1778 15.4216 98.5263 18.0466H109.441C108.963 15.3837 106.891 13.6165 104.188 13.6165Z" fill="#111111"/>
</g>
<defs>
<clipPath id="clip0_1_7302">
<rect width="124.744" height="37.2043" fill="white" transform="translate(0.0546875 0.0683594)"/>
</clipPath>
</defs>
</svg>
