<svg width="32" height="31" viewBox="0 0 32 31" fill="none" xmlns="http://www.w3.org/2000/svg">
<path d="M14.4903 16.0683C14.4312 16.0093 14.3843 15.9393 14.3523 15.8622C14.3203 15.785 14.3038 15.7023 14.3038 15.6188C14.3038 15.5353 14.3203 15.4526 14.3523 15.3755C14.3843 15.2984 14.4312 15.2283 14.4903 15.1693L20.3133 9.34764C20.6706 8.99051 20.8714 8.50608 20.8715 8.00091C20.8716 7.49573 20.671 7.0112 20.3139 6.65391C19.9568 6.29661 19.4724 6.09582 18.9672 6.0957C18.462 6.09558 17.9775 6.29615 17.6202 6.65328L11.7972 12.4763C10.9652 13.3105 10.498 14.4406 10.498 15.6188C10.498 16.797 10.9652 17.9272 11.7972 18.7614L17.6202 24.5844C17.9775 24.9415 18.462 25.1421 18.9672 25.142C19.4724 25.1418 19.9568 24.941 20.3139 24.5837C20.671 24.2265 20.8716 23.7419 20.8715 23.2368C20.8714 22.7316 20.6706 22.2471 20.3133 21.89L14.4903 16.0683Z" fill="#121212"/>
</svg>
