<svg width="37" height="37" viewBox="0 0 37 37" fill="none" xmlns="http://www.w3.org/2000/svg">
<path d="M16.5792 8.21243C17.1835 8.12309 17.8068 8.07517 18.4488 8.07517C26.039 8.07517 31.0196 14.773 32.6928 17.4224C32.8954 17.7431 32.9966 17.9034 33.0533 18.1508C33.0958 18.3365 33.0958 18.6295 33.0532 18.8152C32.9965 19.0625 32.8945 19.2239 32.6906 19.5467C32.2448 20.2523 31.5651 21.2439 30.6645 22.3194M10.6043 10.6251C7.38975 12.8057 5.20742 15.8354 4.20629 17.4202C4.00286 17.7422 3.90115 17.9032 3.84445 18.1505C3.80186 18.3362 3.80185 18.6292 3.84441 18.8149C3.90108 19.0622 4.00234 19.2225 4.20484 19.5432C5.8781 22.1926 10.8587 28.8904 18.4488 28.8904C21.5093 28.8904 24.1455 27.8015 26.3117 26.3281M5.06761 5.10156L31.8301 31.864M15.2949 15.3288C14.4877 16.136 13.9884 17.2511 13.9884 18.4828C13.9884 20.9462 15.9854 22.9432 18.4488 22.9432C19.6805 22.9432 20.7957 22.444 21.6028 21.6368" stroke="black" stroke-opacity="0.4" stroke-width="2.97361" stroke-linecap="round" stroke-linejoin="round"/>
</svg>
