<svg width="38" height="39" viewBox="0 0 38 39" fill="none" xmlns="http://www.w3.org/2000/svg">
<g clip-path="url(#clip0_1_6792)">
<path d="M37.4338 19.4395C37.4338 9.17537 29.1129 0.854492 18.8487 0.854492C8.58455 0.854492 0.263672 9.17522 0.263672 19.4395C0.263672 28.7158 7.05999 36.4046 15.9448 37.7988V24.8118H11.2259V19.4395H15.9448V15.345C15.9448 10.6871 18.7195 8.11428 22.9646 8.11428C24.998 8.11428 27.1249 8.47726 27.1249 8.47726V13.0509H24.7814C22.4725 13.0509 21.7526 14.4836 21.7526 15.9534V19.4395H26.9071L26.0831 24.8118H21.7526V37.7988C30.6374 36.4046 37.4338 28.7159 37.4338 19.4395Z" fill="white"/>
<path d="M26.0837 24.8118L26.9077 19.4395H21.7532V15.9534C21.7532 14.4834 22.4733 13.0509 24.782 13.0509H27.1255V8.47725C27.1255 8.47725 24.9987 8.11426 22.9652 8.11426C18.7201 8.11426 15.9454 10.6871 15.9454 15.345V19.4395H11.2266V24.8118H15.9454V37.7988C16.9061 37.9493 17.877 38.0248 18.8493 38.0246C19.8217 38.0249 20.7926 37.9494 21.7532 37.7988V24.8118H26.0837Z" fill="#1877F2"/>
</g>
<defs>
<clipPath id="clip0_1_6792">
<rect width="37.1701" height="37.1701" fill="white" transform="translate(0.263672 0.854492)"/>
</clipPath>
</defs>
</svg>
