<svg width="31" height="31" viewBox="0 0 31 31" fill="none" xmlns="http://www.w3.org/2000/svg">
<g clip-path="url(#clip0_1_6812)">
<path d="M24.8294 18.9086C23.8694 18.9094 22.924 19.1437 22.0747 19.5915C21.2255 20.0392 20.498 20.6868 19.9549 21.4785L11.6903 17.7468C12.2773 16.3293 12.2796 14.7371 11.6966 13.318L19.9498 9.56719C20.7547 10.7312 21.9501 11.5682 23.3192 11.9264C24.6883 12.2846 26.1404 12.1402 27.4122 11.5194C28.684 10.8986 29.6911 9.84259 30.251 8.54286C30.8108 7.24312 30.8863 5.78577 30.4637 4.43516C30.0411 3.08456 29.1484 1.93015 27.9475 1.18133C26.7467 0.432523 25.3172 0.138909 23.9184 0.353752C22.5197 0.568594 21.2442 1.27766 20.3234 2.35234C19.4027 3.42701 18.8976 4.79611 18.8998 6.2113C18.9052 6.54625 18.9391 6.88013 19.0014 7.2093L10.2275 11.1963C9.38487 10.4068 8.32994 9.8806 7.19234 9.68243C6.05475 9.48426 4.88404 9.6227 3.82405 10.0807C2.76406 10.5388 1.86094 11.2965 1.22566 12.2607C0.59038 13.225 0.250598 14.3538 0.248061 15.5086C0.245524 16.6633 0.580342 17.7936 1.21138 18.7607C1.84242 19.7277 2.74219 20.4894 3.80016 20.9521C4.85814 21.4147 6.02822 21.5583 7.16667 21.3652C8.30513 21.172 9.36236 20.6505 10.2085 19.8647L19.0052 23.8364C18.9441 24.1653 18.9105 24.4987 18.9049 24.8331C18.9046 26.0053 19.252 27.1511 19.903 28.1258C20.5541 29.1005 21.4795 29.8602 22.5624 30.3089C23.6452 30.7576 24.8368 30.875 25.9864 30.6464C27.1361 30.4178 28.1921 29.8534 29.0209 29.0246C29.8497 28.1958 30.4141 27.1398 30.6427 25.9902C30.8713 24.8406 30.7539 23.649 30.3052 22.5661C29.8565 21.4833 29.0968 20.5578 28.1221 19.9067C27.1474 19.2557 26.0015 18.9083 24.8294 18.9086ZM24.8294 2.82493C25.4992 2.82468 26.1541 3.02307 26.7111 3.39502C27.2682 3.76696 27.7024 4.29575 27.9589 4.91451C28.2154 5.53326 28.2827 6.21419 28.1521 6.87116C28.0216 7.52814 27.6992 8.13165 27.2257 8.60537C26.7521 9.07909 26.1487 9.40173 25.4918 9.5325C24.8349 9.66327 24.1539 9.59628 23.5351 9.34001C22.9162 9.08374 22.3873 8.6497 22.0151 8.09279C21.643 7.53588 21.4443 6.88111 21.4443 6.2113C21.445 5.3136 21.8018 4.45285 22.4365 3.81796C23.0711 3.18308 23.9317 2.82594 24.8294 2.82493ZM6.20757 18.9086C5.53776 18.9088 4.88292 18.7104 4.32586 18.3385C3.76881 17.9665 3.33458 17.4378 3.07807 16.819C2.82157 16.2002 2.75433 15.5193 2.88485 14.8623C3.01537 14.2054 3.33779 13.6019 3.81133 13.1281C4.28487 12.6544 4.88826 12.3318 5.54519 12.201C6.20212 12.0702 6.88307 12.1372 7.50192 12.3935C8.12077 12.6498 8.64972 13.0838 9.02188 13.6407C9.39403 14.1976 9.59267 14.8524 9.59267 15.5222C9.59166 16.4198 9.23474 17.2804 8.60016 17.9152C7.96559 18.55 7.10516 18.9072 6.20757 18.9086ZM24.8294 28.2195C24.1597 28.2195 23.5049 28.0209 22.948 27.6488C22.3912 27.2767 21.9571 26.7478 21.7008 26.129C21.4445 25.5103 21.3775 24.8294 21.5081 24.1725C21.6388 23.5156 21.9613 22.9122 22.4349 22.4386C22.9085 21.965 23.5119 21.6425 24.1688 21.5118C24.8257 21.3812 25.5065 21.4482 26.1253 21.7045C26.7441 21.9608 27.273 22.3949 27.6451 22.9518C28.0172 23.5087 28.2158 24.1634 28.2158 24.8331C28.2151 25.7311 27.8581 26.592 27.2232 27.2269C26.5883 27.8618 25.7273 28.2188 24.8294 28.2195Z" fill="black"/>
</g>
<defs>
<clipPath id="clip0_1_6812">
<rect width="30.4735" height="30.4735" fill="white" transform="translate(0.283203 0.285156)"/>
</clipPath>
</defs>
</svg>
