<svg width="22" height="22" viewBox="0 0 22 22" fill="none" xmlns="http://www.w3.org/2000/svg">
<path d="M15.1426 8.55866H19.2403V4.46094" stroke="#475156" stroke-width="1.36591" stroke-linecap="round" stroke-linejoin="round"/>
<path d="M5.71777 5.6656C6.41472 4.96763 7.24244 4.41391 8.15357 4.03612C9.06471 3.65833 10.0414 3.46387 11.0277 3.46387C12.0141 3.46387 12.9908 3.65833 13.9019 4.03612C14.813 4.41391 15.6408 4.96763 16.3377 5.6656L19.2403 8.55962" stroke="#475156" stroke-width="1.36591" stroke-linecap="round" stroke-linejoin="round"/>
<path d="M6.91316 13.3916H2.81543V17.4893" stroke="#475156" stroke-width="1.36591" stroke-linecap="round" stroke-linejoin="round"/>
<path d="M16.3379 16.2856C15.641 16.9836 14.8133 17.5373 13.9021 17.9151C12.991 18.2929 12.0143 18.4874 11.028 18.4874C10.0416 18.4874 9.06492 18.2929 8.15379 17.9151C7.24265 17.5373 6.41494 16.9836 5.71799 16.2856L2.81543 13.3916" stroke="#475156" stroke-width="1.36591" stroke-linecap="round" stroke-linejoin="round"/>
</svg>
