<svg width="15" height="16" viewBox="0 0 15 16" fill="none" xmlns="http://www.w3.org/2000/svg">
<g clip-path="url(#clip0_1_10473)">
<path fill-rule="evenodd" clip-rule="evenodd" d="M7.72235 0.69043C11.7457 0.69043 15.0072 3.95197 15.0072 7.97528C15.0072 11.9986 11.7457 15.2601 7.72235 15.2601C3.69904 15.2601 0.4375 11.9986 0.4375 7.97528C0.4375 3.95197 3.69904 0.69043 7.72235 0.69043Z" fill="#FCBD01"/>
<path d="M8.67132 15.1991V9.57102H10.2589L10.4694 7.5902H8.67132L8.67399 6.59871C8.67399 6.08207 8.72309 5.80537 9.46562 5.80537H10.4582V3.82422H8.87027C6.96284 3.82422 6.29157 4.78508 6.29157 6.40119V7.59035H5.10254V9.57135H6.29157V15.1193C6.75479 15.2115 7.23368 15.2603 7.72401 15.2603C8.04077 15.2603 8.35719 15.2398 8.67132 15.1991Z" fill="white"/>
</g>
<defs>
<clipPath id="clip0_1_10473">
<rect width="14.5697" height="14.5697" fill="white" transform="translate(0.4375 0.69043)"/>
</clipPath>
</defs>
</svg>
