<svg width="23" height="22" viewBox="0 0 23 22" fill="none" xmlns="http://www.w3.org/2000/svg">
<path d="M11.8553 18.4879C11.8553 18.4879 3.31836 13.7072 3.31836 7.9021C3.31836 6.87587 3.67392 5.88133 4.32454 5.0877C4.97516 4.29406 5.88066 3.75037 6.88696 3.5491C7.89327 3.34784 8.93823 3.50145 9.84404 3.98379C10.7499 4.46614 11.4606 5.24742 11.8553 6.19472C12.25 5.24742 12.9607 4.46614 13.8665 3.98379C14.7724 3.50145 15.8173 3.34784 16.8236 3.5491C17.8299 3.75037 18.7354 4.29406 19.386 5.0877C20.0367 5.88133 20.3922 6.87587 20.3922 7.9021C20.3922 13.7072 11.8553 18.4879 11.8553 18.4879Z" stroke="#475156" stroke-width="1.36591" stroke-linecap="round" stroke-linejoin="round"/>
</svg>
