<svg width="19" height="20" viewBox="0 0 19 20" fill="none" xmlns="http://www.w3.org/2000/svg">
<path d="M10.7219 15.6433V12.2573C10.7219 12.1077 10.6624 11.9641 10.5566 11.8583C10.4508 11.7525 10.3072 11.693 10.1575 11.693H7.90024C7.75057 11.693 7.60703 11.7525 7.5012 11.8583C7.39536 11.9641 7.33591 12.1077 7.33591 12.2573V15.6433C7.33591 15.793 7.27645 15.9365 7.17062 16.0423C7.06479 16.1482 6.92125 16.2076 6.77158 16.2076H3.38562C3.23595 16.2076 3.09241 16.1482 2.98658 16.0423C2.88074 15.9365 2.82129 15.793 2.82129 15.6433V9.11826C2.82255 9.04016 2.83943 8.9631 2.87093 8.89162C2.90243 8.82015 2.94791 8.75569 3.0047 8.70206L8.64797 3.57374C8.752 3.47856 8.88789 3.42578 9.02889 3.42578C9.16989 3.42578 9.30578 3.47856 9.40981 3.57374L15.0531 8.70206C15.1099 8.75569 15.1554 8.82015 15.1869 8.89162C15.2184 8.9631 15.2352 9.04016 15.2365 9.11826V15.6433C15.2365 15.793 15.177 15.9365 15.0712 16.0423C14.9654 16.1482 14.8218 16.2076 14.6722 16.2076H11.2862C11.1365 16.2076 10.993 16.1482 10.8872 16.0423C10.7813 15.9365 10.7219 15.793 10.7219 15.6433Z" stroke="#5F6C72" stroke-width="1.35439" stroke-linecap="round" stroke-linejoin="round"/>
</svg>
