<svg width="22" height="23" viewBox="0 0 22 23" fill="none" xmlns="http://www.w3.org/2000/svg">
<g clip-path="url(#clip0_1_10459)">
<path d="M19.5344 10.723L11.323 2.5116C10.9946 2.18314 10.5384 1.98242 10.0366 1.98242H3.64994C2.64633 1.98242 1.8252 2.80356 1.8252 3.80717V10.1938C1.8252 10.6956 2.02592 11.1518 2.3635 11.4894L10.5749 19.7007C10.9033 20.0292 11.3595 20.2299 11.8613 20.2299C12.3631 20.2299 12.8193 20.0292 13.1478 19.6916L19.5344 13.305C19.872 12.9765 20.0727 12.5203 20.0727 12.0185C20.0727 11.5167 19.8628 11.0514 19.5344 10.723ZM5.0185 6.54429C4.26123 6.54429 3.64994 5.933 3.64994 5.17573C3.64994 4.41846 4.26123 3.80717 5.0185 3.80717C5.77577 3.80717 6.38706 4.41846 6.38706 5.17573C6.38706 5.933 5.77577 6.54429 5.0185 6.54429Z" fill="white"/>
</g>
<defs>
<clipPath id="clip0_1_10459">
<rect width="21.897" height="21.897" fill="white" transform="translate(0 0.158203)"/>
</clipPath>
</defs>
</svg>
