<svg width="15" height="16" viewBox="0 0 15 16" fill="none" xmlns="http://www.w3.org/2000/svg">
<g clip-path="url(#clip0_1_10478)">
<path d="M6.82732 0.739155C4.40615 1.00944 1.99351 2.96828 1.89393 5.76643C1.83134 7.4749 2.31643 8.75661 3.9424 9.11652C4.64798 7.87179 3.71479 7.59724 3.56969 6.69677C2.97364 3.00669 7.82594 0.49021 10.3652 3.06644C12.122 4.85031 10.9655 10.3385 8.13179 9.76804C5.41758 9.22321 9.46045 4.85458 7.29391 3.99678C5.5328 3.29973 4.59677 6.12917 5.4318 7.53465C4.94245 9.95155 3.88834 12.229 4.3151 15.2605C5.69924 14.2562 6.16583 12.3329 6.5485 10.3271C7.24412 10.7496 7.61541 11.1892 8.50308 11.2574C11.7764 11.5107 13.6043 7.98986 13.1576 4.74219C12.7608 1.86296 9.88721 0.397744 6.82732 0.739155Z" fill="#5F6C72"/>
</g>
<defs>
<clipPath id="clip0_1_10478">
<rect width="14.5697" height="14.5697" fill="white" transform="translate(0.430664 0.69043)"/>
</clipPath>
</defs>
</svg>
