<svg width="23" height="23" viewBox="0 0 23 23" fill="none" xmlns="http://www.w3.org/2000/svg">
<path d="M7.66406 18.7012C7.86601 18.7013 8.0293 18.8654 8.0293 19.0674C8.02913 19.2692 7.86591 19.4325 7.66406 19.4326C7.46208 19.4326 7.29801 19.2693 7.29785 19.0674C7.29785 18.8653 7.46198 18.7012 7.66406 18.7012Z" fill="#1877F2" stroke="#1877F2" stroke-width="2"/>
<path d="M16.542 18.7012C16.7439 18.7013 16.9072 18.8654 16.9072 19.0674C16.9071 19.2692 16.7438 19.4325 16.542 19.4326C16.34 19.4326 16.1759 19.2693 16.1758 19.0674C16.1758 18.8653 16.3399 18.7012 16.542 18.7012Z" fill="#1877F2" stroke="#1877F2" stroke-width="2"/>
<path d="M4.44477 6.77415H19.76L17.5063 14.6623C17.4259 14.9486 17.2537 15.2005 17.0161 15.3794C16.7786 15.5583 16.4889 15.6543 16.1916 15.6526H8.01321C7.71585 15.6543 7.42616 15.5583 7.18864 15.3794C6.95113 15.2005 6.77893 14.9486 6.69852 14.6623L3.60815 3.85452C3.56731 3.71174 3.48105 3.58616 3.36243 3.49682C3.24382 3.40747 3.09931 3.35922 2.95081 3.35938H1.5166" stroke="#1877F2" stroke-width="2" stroke-linecap="round" stroke-linejoin="round"/>
</svg>
