<svg width="16" height="16" viewBox="0 0 16 16" fill="none" xmlns="http://www.w3.org/2000/svg">
<g clip-path="url(#clip0_1_10476)">
<path d="M5.51562 13.8959C11.0139 13.8959 14.0207 9.33809 14.0207 5.38569C14.0207 5.25625 14.018 5.1274 14.0122 4.99909C14.5973 4.5755 15.1022 4.05102 15.5033 3.45025C14.9677 3.68851 14.3913 3.84888 13.7867 3.92118C14.4038 3.5509 14.8776 2.9651 15.1012 2.26683C14.5144 2.61514 13.8724 2.86067 13.203 2.99285C12.6575 2.41147 11.881 2.04785 11.0211 2.04785C9.37031 2.04785 8.03167 3.38734 8.03167 5.03845C8.03167 5.27319 8.05794 5.50145 8.10923 5.72046C5.62483 5.59537 3.42184 4.40517 1.94749 2.59541C1.68195 3.05187 1.54227 3.57064 1.54274 4.09875C1.54274 5.13647 2.07044 6.05253 2.87296 6.58848C2.39826 6.57397 1.93398 6.44568 1.51917 6.21438C1.51872 6.22694 1.51872 6.23917 1.51872 6.25259C1.51872 7.7011 2.54908 8.91053 3.91686 9.18457C3.65997 9.25457 3.39489 9.28997 3.12864 9.28981C2.93636 9.28981 2.74897 9.27088 2.56685 9.2359C2.94741 10.4243 4.05092 11.2891 5.35926 11.3133C4.33615 12.1157 3.04735 12.5936 1.64662 12.5936C1.40834 12.5938 1.17025 12.58 0.933594 12.5522C2.25653 13.4007 3.8274 13.8957 5.51576 13.8957" fill="#5F6C72"/>
</g>
<defs>
<clipPath id="clip0_1_10476">
<rect width="14.5697" height="14.5697" fill="white" transform="translate(0.933594 0.69043)"/>
</clipPath>
</defs>
</svg>
