<svg width="102" height="66" viewBox="0 0 102 66" fill="none" xmlns="http://www.w3.org/2000/svg">
<path fill-rule="evenodd" clip-rule="evenodd" d="M14.7306 60.9894C14.7181 61.0138 14.6938 61.0625 14.6818 61.0993C13.3645 63.5878 10.778 65.2831 7.82595 65.2831C3.54421 65.2831 0.03125 61.6965 0.03125 57.2685C0.03125 52.8649 3.54421 49.2539 7.82595 49.2539C10.7904 49.2539 13.3889 50.986 14.6938 53.5114C14.7306 53.5601 14.7425 53.5845 14.7793 53.6576C14.7918 53.67 12.2908 55.4752 12.2665 55.439C12.254 55.3902 12.2421 55.3534 12.2177 55.329C11.4976 53.5357 9.79039 52.3402 7.82595 52.3771C5.20317 52.4014 3.0439 54.5726 3.0439 57.2685C3.0439 59.9888 5.20317 62.1849 7.82595 62.1849C9.72918 62.1849 11.3882 61.0138 12.144 59.3547C12.1809 59.2936 12.1934 59.2448 12.2177 59.1961L14.7306 60.9894Z" fill="#13101E"/>
<path fill-rule="evenodd" clip-rule="evenodd" d="M17.9629 49.4004H20.9636V54.9996H28.8445V49.4004H31.8696V64.978H28.8445V58.1346H20.9636V64.978H17.9629V49.4004Z" fill="#13101E"/>
<path fill-rule="evenodd" clip-rule="evenodd" d="M74.2246 64.978V49.4004H85.1179V52.5473H77.262V55.6579H84.5203V58.7686H77.262V61.8792H86.2278V64.978H74.2246Z" fill="#13101E"/>
<path fill-rule="evenodd" clip-rule="evenodd" d="M90.4844 64.978V49.4004H93.5339V61.8792H102V64.978H90.4844Z" fill="#13101E"/>
<path fill-rule="evenodd" clip-rule="evenodd" d="M57.8523 64.978H57.7548H54.8027V49.4004H55.0221H59.0353L65.7082 58.7686V49.4004H68.7333V64.978H66.318L57.8523 53.2306V64.978Z" fill="#13101E"/>
<path fill-rule="evenodd" clip-rule="evenodd" d="M43.324 52.5473L40.6649 58.7686H46.1054L43.324 52.5473ZM39.2983 61.8792L37.9078 64.978H34.2969L41.2015 49.4004H45.4221L52.3754 64.978H48.7645L47.3621 61.8792H39.2983Z" fill="#13101E"/>
<path fill-rule="evenodd" clip-rule="evenodd" d="M52.5835 43.4015C49.3116 45.2933 45.3975 46.4178 41.2271 46.4178C32.6944 46.4178 25.2208 41.7659 21.1786 34.8682C21.1786 34.8362 21.1473 34.8362 21.1473 34.8042C21.1473 34.7721 21.1145 34.7721 21.1145 34.7401L24.3865 33.0405L27.6584 31.3713C27.6912 31.4049 27.724 31.4354 27.7553 31.501C30.5459 36.0232 35.5505 39.0395 41.2271 39.0395C43.0569 39.0395 44.8209 38.7191 46.3928 38.2049C42.8959 34.1954 40.7787 28.9348 40.7787 23.1921C40.7787 17.4829 42.8647 12.2223 46.3288 8.17925C44.7568 7.63458 43.0241 7.34622 41.2271 7.34622C35.6146 7.34622 30.4177 10.361 27.563 15.2051C27.5302 15.2371 27.5302 15.2707 27.5302 15.3012L20.9551 11.9019C20.9864 11.8379 21.0192 11.7738 21.0504 11.7402C25.0613 4.71592 32.6303 0 41.2271 0C45.3975 0 49.3116 1.12291 52.5835 3.04834C55.8554 1.12291 59.7695 0 63.9383 0C72.5353 0 80.1058 4.71592 84.1153 11.7402C84.1474 11.7738 84.1794 11.8379 84.2115 11.9019L77.6357 15.3012C77.6357 15.2707 77.6357 15.2371 77.6037 15.2051C74.7491 10.361 69.5526 7.34622 63.9383 7.34622C62.1429 7.34622 60.4102 7.63458 58.8382 8.17925C62.3023 12.2223 64.3883 17.4829 64.3883 23.1921C64.3883 28.9348 62.2711 34.1954 58.7742 38.2049C60.3461 38.7191 62.1101 39.0395 63.9383 39.0395C69.6167 39.0395 74.6209 36.0232 77.4114 31.501C77.4435 31.4354 77.4755 31.4049 77.5076 31.3713L80.7787 33.0405L84.0513 34.7401C84.0513 34.7721 84.0192 34.7721 84.0192 34.8042C84.0192 34.8362 83.9872 34.8362 83.9872 34.8682C79.9456 41.7659 72.4712 46.4178 63.9383 46.4178C59.7695 46.4178 55.8554 45.2933 52.5835 43.4015ZM52.5835 34.1954C49.8882 31.3408 48.1568 27.4595 48.1568 23.1921C48.1568 18.9903 49.7929 15.173 52.5835 12.3185C55.3741 15.173 57.0102 18.9903 57.0102 23.1921C57.0102 27.4595 55.2773 31.3408 52.5835 34.1954Z" fill="#13101E"/>
</svg>
