<svg width="76" height="51" viewBox="0 0 76 51" fill="none" xmlns="http://www.w3.org/2000/svg">
<path d="M53.265 2.13322C56.018 0.781115 57.3823 0.95855 57.413 2.32905C57.4498 4.10939 57.1866 6.47691 56.9969 8.18998C55.9751 17.5008 54.2682 25.109 54.1398 34.6688C58.6364 23.0277 62.4051 14.9368 67.2626 4.97197C68.8045 1.79674 69.7894 2.39023 71.0557 1.82733C75.9868 -0.368952 76.1704 0.976949 75.5279 3.66276C73.1359 13.6105 67.0117 44.9315 66.0759 49.7544C65.8066 51.1498 64.2895 50.5582 63.8978 50.0126C62.1421 47.5838 60.1599 47.5458 60.38 45.9307C61.4813 37.8898 65.4456 17.7156 66.4796 12.9619C61.212 23.7612 55.7488 37.2616 52.9406 44.9163C52.3472 46.5418 51.2643 46.4226 50.5914 45.2332C49.6431 43.5625 47.8016 42.7096 47.4956 40.7353C46.5352 34.4584 48.597 22.4942 48.8844 14.9252C46.0152 23.1935 41.2004 39.2462 39.0897 46.4989C38.221 49.4998 35.321 49.0103 36.0919 46.0854C39.2976 33.9138 46.2048 12.3868 49.1903 4.64769C49.8942 2.82446 51.7355 2.88563 53.265 2.13322Z" fill="#B00020"/>
<path d="M35.78 0.640972C34.8502 0.414659 32.1522 1.87072 30.4942 2.15821C29.9681 2.24998 29.4663 2.80667 29.2889 3.20443C26.6337 9.30397 24.2539 15.1184 22.1921 20.4152C19.5553 20.8655 16.472 21.4583 13.0215 22.2334C15.4931 15.8935 17.9892 9.64033 20.4241 3.62646C21.6232 0.665357 18.4664 0.383967 17.2428 3.38176C15.6521 7.27892 12.6727 14.5806 9.37509 23.0912C6.95239 23.6852 4.38294 24.3643 1.69713 25.1401C-0.254555 25.7035 -0.333987 26.2235 0.510302 27.3939C0.975227 28.0456 1.93575 27.9799 2.37619 28.4443C3.51417 29.6477 4.2055 31.0872 6.24264 31.3051C4.42561 36.1657 2.60861 41.1782 0.962921 46.0045C-0.0709959 49.0341 2.87168 49.6538 4.00357 46.448C5.82669 41.2802 7.74772 36.05 9.72379 30.8351C11.3695 30.4527 15.3522 29.5949 19.029 28.7971C16.1108 36.7956 14.1897 42.8702 13.4618 45.827C13.3272 46.3959 13.5535 46.7116 13.6759 46.9435C14.6608 48.3769 15.5969 48.4356 16.8633 50.2079C17.206 50.6912 18.3562 50.9519 18.7476 49.7619C21.4517 41.5939 24.2354 33.93 26.8293 27.0596C27.906 26.8241 29.8454 26.356 31.0323 24.5849C33.1429 21.4414 33.7486 22.079 34.2565 21.1234C34.8927 19.9237 34.4705 18.7973 32.2193 19.0756C32.2193 19.0756 31.3688 19.1362 29.7965 19.3154C32.2926 12.8886 34.4767 7.43753 36.049 3.28357C36.5876 1.87682 36.6549 0.848995 35.78 0.640972Z" fill="#B00020"/>
<path d="M32.0974 42.3249C32.6786 43.7938 34.4956 43.349 33.8043 41.5762C33.1007 39.77 31.351 34.3331 30.8921 32.5815C30.2681 30.2212 32.9722 30.8667 31.6018 32.4097C30.4272 33.7366 29.644 34.2682 27.4722 36.7913C25.3738 39.2268 25.9428 42.3874 28.188 43.0855C30.7208 43.8734 32.9539 41.0825 34.3365 39.0348C35.6763 37.052 34.3793 35.889 33.0273 37.0612C32.1585 37.8149 31.1552 38.9724 30.1395 39.5964C29.3136 40.0987 28.6651 39.5591 29.7664 38.0432C31.045 36.288 32.4766 34.8172 33.5411 33.1586C35.713 29.7785 31.4182 27.83 29.5706 30.0256C28.5794 31.196 28.8303 32.345 29.0995 33.3311C29.5339 34.9107 31.1491 39.9531 32.0974 42.3249Z" fill="#B00020"/>
</svg>
