<svg width="117" height="19" viewBox="0 0 117 19" fill="none" xmlns="http://www.w3.org/2000/svg">
<path d="M2.90493 18.3231H1.27657C1.1407 18.3231 0.800781 18.3231 0.800781 18.1196C0.800781 17.9847 0.868969 17.916 1.07251 17.8478C2.56704 17.3721 2.90442 16.5579 2.90442 15.4053V3.24704C2.90442 2.16011 2.5645 1.34542 1.07251 0.804503C0.868969 0.804503 0.800781 0.668636 0.800781 0.600958C0.800781 0.329734 1.1407 0.397413 1.27657 0.397413H14.7212C17.7769 0.397413 20.2902 2.83995 20.2902 5.89771C20.2902 8.95546 17.7769 11.395 14.7212 11.395H7.93046V15.5376C7.99864 16.624 8.33755 17.3695 9.76236 17.8463C9.96591 17.9145 10.0336 17.9827 10.0336 18.118C10.0336 18.3216 9.69417 18.3216 9.55831 18.3216H2.90493V18.3231ZM103.141 11.7359H106.332L103.141 6.30276L102.8 5.7593L99.9506 11.7359H103.141ZM103.141 0.327698H105.314L114.413 16.3569C114.685 16.764 115.024 17.1711 115.431 17.3746C115.77 17.6468 116.177 17.7155 116.517 17.8504C116.653 17.9191 116.788 17.9873 116.788 18.1226C116.788 18.3262 116.449 18.3262 116.313 18.3262H108.232C108.097 18.3262 107.688 18.3262 107.688 18.1226C107.688 17.9873 107.824 17.9191 107.961 17.8504C108.368 17.7155 108.639 17.5115 108.775 17.1044C108.912 16.6281 108.775 16.3579 108.436 15.7452C107.975 14.7652 107.5 13.7919 107.011 12.8254H99.4051L99.338 12.9607C99.2693 13.233 98.7273 14.182 98.3202 15.2023C97.7778 16.2887 97.5737 16.5599 97.7096 17.1034C97.7783 17.5105 98.1167 17.714 98.5238 17.8499C98.6607 17.9186 98.7273 17.9868 98.7273 18.1216C98.7273 18.3252 98.3869 18.3252 98.2515 18.3252H94.516C94.3806 18.3252 94.0402 18.3252 94.0402 18.1216C94.0402 17.9868 94.1089 17.9181 94.3119 17.8499C94.6524 17.7145 95.0584 17.6463 95.3984 17.3741C95.8055 17.1705 96.1459 16.7635 96.4161 16.3564L96.8919 15.3386L102.053 4.53752L101.305 3.24704C100.627 2.16011 99.9476 1.48129 99.2006 1.07369C98.8612 0.870146 98.5212 0.870146 98.1829 0.73428C97.9793 0.666092 97.9106 0.597905 97.9793 0.462038C97.9793 0.326172 98.1147 0.394359 98.1829 0.326172H103.141L103.141 0.327698ZM82.8371 18.2544H83.1088C95.605 18.2544 95.4696 0.393342 83.1088 0.393342H72.8547C72.6512 0.393342 72.3123 0.325154 72.3123 0.596887C72.3123 0.664566 72.4476 0.800432 72.583 0.800432C74.077 1.27571 74.4149 2.09091 74.4841 3.11016V15.5412C74.4169 16.6271 74.077 17.3731 72.583 17.8494C72.4476 17.9181 72.3123 17.9862 72.3123 18.1216C72.3123 18.3252 72.6517 18.3252 72.8547 18.3252H79.4419V18.2565H82.8371V18.2544ZM82.8371 1.68484C83.7546 1.68845 84.6336 2.05445 85.2826 2.70312C85.9315 3.35179 86.2979 4.2306 86.3019 5.14815V13.4335C86.298 14.3511 85.9317 15.2299 85.2827 15.8786C84.6337 16.5273 83.7547 16.8933 82.8371 16.8968H79.4394V1.68484H82.8371ZM56.9619 11.7359H60.1535L56.9619 6.30276L56.622 5.7593L53.7724 11.7359H56.9619ZM56.9619 0.327698H59.2009L68.3009 16.3569C68.5045 16.764 68.8444 17.1711 69.252 17.3746C69.5909 17.6468 69.9995 17.7155 70.4066 17.8504C70.5419 17.9191 70.6773 17.9873 70.6773 18.1226C70.6773 18.3262 70.2702 18.3262 70.1348 18.3262H62.0567C61.9203 18.3262 61.5809 18.3262 61.5809 18.1226C61.5809 17.9873 61.648 17.9191 61.8516 17.8504C62.192 17.7155 62.5304 17.5115 62.5991 17.1044C62.7345 16.6281 62.5991 16.3579 62.3274 15.7452C61.8516 14.7275 61.3096 13.7759 60.8344 12.8254H53.2264L53.1587 12.9607C53.091 13.233 52.6152 14.182 52.141 15.2023C51.6657 16.2887 51.3945 16.5599 51.5303 17.1034C51.6662 17.5105 51.9374 17.714 52.3445 17.8499C52.4799 17.9186 52.6157 17.9868 52.6157 18.1216C52.6157 18.3252 52.2763 18.3252 52.0733 18.3252H48.4049C48.269 18.3252 47.8614 18.3252 47.8614 18.1216C47.8614 17.9868 47.9973 17.9181 48.1332 17.8499C48.5402 17.7145 48.8802 17.6463 49.2883 17.3741C49.6272 17.1705 50.0353 16.7635 50.2383 16.3564L50.7136 15.3386L55.9432 4.53752L55.1972 3.24704C54.5184 2.16011 53.7724 1.48129 53.092 1.07369C52.6849 0.870146 52.4127 0.870146 52.0051 0.73428C51.8687 0.666092 51.7328 0.597905 51.8015 0.462038C51.8702 0.326172 52.0051 0.394359 52.0738 0.326172H56.9629L56.9619 0.327698ZM34.5511 12.2117C36.1133 12.7541 38.0149 12.8895 39.5084 12.4152L45.4174 17.5089L45.8926 17.916C45.9186 17.9426 45.9382 17.9748 45.9501 18.01C45.962 18.0452 45.9658 18.0827 45.9613 18.1196C45.9613 18.3231 45.6214 18.3231 45.485 18.3231H39.2377L34.5521 14.4522L30.7484 11.3955V15.6068C30.8171 16.6245 31.2242 17.3721 32.65 17.8458C32.7859 17.9145 32.8535 17.9822 32.8535 18.1175C32.8535 18.3211 32.5136 18.3211 32.3772 18.3211H24.1606C23.9571 18.3211 23.6172 18.3211 23.6172 18.1175C23.6172 17.9822 23.7535 17.914 23.8884 17.8458C25.5168 17.3034 25.7203 16.4882 25.79 15.1997V3.45059C25.7218 2.22932 25.5183 1.34542 23.8884 0.804503C23.7525 0.804503 23.6172 0.668636 23.6172 0.600958C23.6172 0.329734 23.9571 0.397413 24.1606 0.397413H37.4033C38.1226 0.394332 38.8355 0.532978 39.5013 0.805432C40.167 1.07789 40.7726 1.47881 41.2834 1.98532C41.7942 2.49182 42.2003 3.09399 42.4783 3.75742C42.7564 4.42085 42.9011 5.13256 42.9041 5.85191V5.89771C42.9092 7.34975 42.3376 8.74443 41.3149 9.77523C40.2922 10.806 38.9021 11.3886 37.4501 11.395H33.1248C33.3283 11.802 33.8036 11.9384 34.2107 12.1425C34.347 12.1425 34.4142 12.2117 34.5506 12.2117H34.5511ZM34.5511 10.1065H35.0971C36.8624 10.1065 38.3569 8.20438 38.3569 5.7593C38.3538 3.3824 36.8598 1.48129 35.0971 1.48129H30.7479V10.1065H34.5511ZM11.8009 1.4818H7.93046V10.107H12.413C14.2449 10.107 15.6698 8.20489 15.6698 5.75981C15.6698 3.38342 14.2449 1.4818 12.413 1.4818H11.8009Z" fill="#13101E"/>
</svg>
