<svg width="111" height="47" viewBox="0 0 111 47" fill="none" xmlns="http://www.w3.org/2000/svg">
<path d="M104.41 45.2403L88.2071 0.630999L88.196 0.601562H87.8762L84.5397 9.76867L78.4655 26.4575L78.4513 26.4443C76.346 24.5867 73.3759 23.4255 69.6354 22.993L68.4944 22.8753L69.6262 22.7301C75.7948 21.6217 79.9414 17.7258 79.9414 13.0321C79.9414 6.59557 73.8875 2.10286 65.2157 2.10286H47.1728V2.4287H52.4157V35.6875L39.6826 0.630999L39.6715 0.601562H39.3517L36.0152 9.76867L23.1461 45.1256L23.0669 45.1348C22.847 45.1619 22.6294 45.1835 22.4142 45.1997C22.0904 45.2251 21.7686 45.2403 21.4459 45.2403H8.44279L33.1598 2.42869L33.3435 2.10691H3.11366V15.3506H3.43442C3.49127 8.89977 7.24805 2.42869 15.5483 2.42869H25.562L0.658203 45.5611H34.2084V32.8727H33.8876C33.8439 38.4952 30.6566 43.8355 23.7257 45.0414L23.5054 45.079L28.7838 30.5705H43.5704L48.8985 45.2403H43.6424V45.5611H64.2717V45.2403H58.9934V23.1118H65.0838C71.2818 23.1118 74.8366 25.8809 74.8366 30.7066V34.6318C74.8366 35.0643 74.866 35.6966 74.8985 36.2255V36.2448L71.6249 45.2383H67.3484V45.5591H76.2009V45.2383H71.97L74.9513 37.0487C74.9574 37.1279 74.9604 37.1756 74.9604 37.1756L75.0426 37.9136L75.1218 38.4018C75.6192 41.4216 76.7744 43.6416 78.5538 44.9998L78.8096 45.1855C80.1617 46.1255 81.8416 46.6016 83.8058 46.6016C86.4074 46.6016 88.1421 45.9529 89.5744 44.4263L89.3866 44.2496C88.067 45.4677 86.9596 45.9611 85.572 45.9611C83.2079 45.9611 81.9705 43.0935 81.9705 40.2655V34.7658C81.9831 33.4012 81.7694 32.0439 81.3381 30.7492L81.2792 30.5787V30.5726H92.0948L97.4229 45.2424H92.1669V45.5631H110.019V45.2424L104.41 45.2403ZM28.9016 30.2498L36.1857 10.2376L43.4536 30.2498H28.9016ZM58.9964 22.79V2.42869H63.6454C69.8556 2.42869 73.1343 6.12051 73.1343 13.1012C73.1343 20.5254 71.2524 22.79 65.0838 22.79H58.9964ZM81.1534 30.2498L81.1219 30.1706C80.6413 29 79.9416 27.932 79.0603 27.0239L78.7558 26.7194L78.7233 26.6889L84.7061 10.2376L91.974 30.2498H81.1534Z" fill="#13101E"/>
</svg>
